<mxfile host="65bd71144e">
    <diagram id="mAburYCRM7DdaKRXp2d5" name="Page-1">
        <mxGraphModel dx="1404" dy="939" grid="1" gridSize="10" guides="1" tooltips="1" connect="1" arrows="1" fold="1" page="1" pageScale="1" pageWidth="850" pageHeight="1100" math="0" shadow="0">
            <root>
                <mxCell id="0"/>
                <mxCell id="1" parent="0"/>
                <mxCell id="2" value="" style="rounded=0;whiteSpace=wrap;html=1;fillColor=#647687;fontColor=#ffffff;strokeColor=#314354;" parent="1" vertex="1">
                    <mxGeometry x="40" y="200" width="300" height="340" as="geometry"/>
                </mxCell>
                <mxCell id="15" style="edgeStyle=none;html=1;entryX=1;entryY=0.25;entryDx=0;entryDy=0;fontFamily=Verdana;fontSize=21;" parent="1" source="3" target="2" edge="1">
                    <mxGeometry relative="1" as="geometry"/>
                </mxCell>
                <mxCell id="3" value="" style="rounded=0;whiteSpace=wrap;html=1;fillColor=#fa6800;fontColor=#000000;strokeColor=#C73500;" parent="1" vertex="1">
                    <mxGeometry x="410" y="210" width="340" height="140" as="geometry"/>
                </mxCell>
                <mxCell id="4" value="TodoContext&lt;br&gt;(EntityFrameworkCore)" style="rounded=0;whiteSpace=wrap;html=1;fillColor=#f5f5f5;fontColor=#333333;strokeColor=#666666;" parent="1" vertex="1">
                    <mxGeometry x="440" y="290" width="130" height="50" as="geometry"/>
                </mxCell>
                <mxCell id="5" value="Entities" style="rounded=0;whiteSpace=wrap;html=1;fillColor=#f5f5f5;fontColor=#333333;strokeColor=#666666;" parent="1" vertex="1">
                    <mxGeometry x="50" y="320" width="130" height="50" as="geometry"/>
                </mxCell>
                <mxCell id="6" value="ITodoService" style="rounded=0;whiteSpace=wrap;html=1;fillColor=#f5f5f5;fontColor=#333333;strokeColor=#666666;" parent="1" vertex="1">
                    <mxGeometry x="50" y="390" width="130" height="50" as="geometry"/>
                </mxCell>
                <mxCell id="7" value="TodoService" style="rounded=0;whiteSpace=wrap;html=1;fillColor=#f5f5f5;fontColor=#333333;strokeColor=#666666;" parent="1" vertex="1">
                    <mxGeometry x="590" y="290" width="130" height="50" as="geometry"/>
                </mxCell>
                <mxCell id="8" value="Validators" style="rounded=0;whiteSpace=wrap;html=1;fillColor=#f5f5f5;fontColor=#333333;strokeColor=#666666;" parent="1" vertex="1">
                    <mxGeometry x="200" y="390" width="130" height="50" as="geometry"/>
                </mxCell>
                <mxCell id="9" value="Constants" style="rounded=0;whiteSpace=wrap;html=1;fillColor=#f5f5f5;fontColor=#333333;strokeColor=#666666;" parent="1" vertex="1">
                    <mxGeometry x="200" y="320" width="130" height="50" as="geometry"/>
                </mxCell>
                <mxCell id="11" value="JasonTodoCore" style="text;html=1;align=center;verticalAlign=middle;whiteSpace=wrap;rounded=0;fontFamily=Verdana;fontSize=21;" parent="1" vertex="1">
                    <mxGeometry x="150" y="250" width="60" height="30" as="geometry"/>
                </mxCell>
                <mxCell id="14" value="JasonTodoInstrastructure" style="text;html=1;align=center;verticalAlign=middle;whiteSpace=wrap;rounded=0;fontFamily=Verdana;fontSize=21;" parent="1" vertex="1">
                    <mxGeometry x="570" y="230" width="60" height="30" as="geometry"/>
                </mxCell>
                <mxCell id="23" style="edgeStyle=none;html=1;fontFamily=Verdana;fontSize=21;" parent="1" source="16" target="2" edge="1">
                    <mxGeometry relative="1" as="geometry"/>
                </mxCell>
                <mxCell id="24" style="edgeStyle=none;html=1;fontFamily=Verdana;fontSize=21;" parent="1" source="16" target="3" edge="1">
                    <mxGeometry relative="1" as="geometry"/>
                </mxCell>
                <mxCell id="16" value="" style="rounded=0;whiteSpace=wrap;html=1;fontFamily=Verdana;fontSize=21;fillColor=#dae8fc;strokeColor=#6c8ebf;" parent="1" vertex="1">
                    <mxGeometry x="40" y="630" width="710" height="160" as="geometry"/>
                </mxCell>
                <mxCell id="17" value="REST API" style="rounded=0;whiteSpace=wrap;html=1;fillColor=#f5f5f5;fontColor=#333333;strokeColor=#666666;" parent="1" vertex="1">
                    <mxGeometry x="170" y="720" width="130" height="50" as="geometry"/>
                </mxCell>
                <mxCell id="18" value="ViewModel (for Json)" style="rounded=0;whiteSpace=wrap;html=1;fillColor=#f5f5f5;fontColor=#333333;strokeColor=#666666;" parent="1" vertex="1">
                    <mxGeometry x="330" y="720" width="130" height="50" as="geometry"/>
                </mxCell>
                <mxCell id="19" value="Dependeny injection setup" style="rounded=0;whiteSpace=wrap;html=1;fillColor=#f5f5f5;fontColor=#333333;strokeColor=#666666;" parent="1" vertex="1">
                    <mxGeometry x="500" y="720" width="180" height="50" as="geometry"/>
                </mxCell>
                <mxCell id="21" value="JasonTodoApi" style="text;html=1;align=center;verticalAlign=middle;whiteSpace=wrap;rounded=0;fontFamily=Verdana;fontSize=21;" parent="1" vertex="1">
                    <mxGeometry x="390" y="660" width="60" height="30" as="geometry"/>
                </mxCell>
            </root>
        </mxGraphModel>
    </diagram>
</mxfile>